<svg xmlns:xlink="http://www.w3.org/1999/xlink" xmlns="http://www.w3.org/2000/svg" viewBox="0 0 100 100" width="100"  height="100" ><g id="leaf-2" fill="#FFFFFF"><path d="M86.46,94.45C84.41,87.26,80,79,73.23,69.72a34.58,34.58,0,0,0,8.25-15.2c1.89-7.87.49-15.45-3.93-21.32h0c-.18-.24-.36-.48-.5-.64-9.22-13.66-49-26-61-29.47a2,2,0,0,0-1.76.32,2,2,0,0,0-.8,1.6c0,53.92,10.13,65.74,12.16,67.57,4.43,5.77,11.26,9.14,19.27,9.5q.7,0,1.41,0a36.18,36.18,0,0,0,21.6-7.54c.85-.63,1.66-1.29,2.44-2,5.59,7.74,10.21,15.72,12.28,23A2,2,0,0,0,84.54,97a1.79,1.79,0,0,0,.55-.08A2,2,0,0,0,86.46,94.45Zm-21-23.08a31.94,31.94,0,0,1-20.44,6.7c-6.87-.31-12.69-3.18-16.38-8.08a1.52,1.52,0,0,0-.33-.34c-.11-.1-10.5-9.72-10.88-62,45.24,13.38,54.82,25,56.3,27.18l.1.15.09.1c.13.15.26.33.39.5h0c3.69,4.91,4.84,11.29,3.24,18a30.53,30.53,0,0,1-6.8,12.87c-1.08-1.42-2.22-2.85-3.4-4.31,4.89-8.71-2.48-24.92-2.81-25.62A2,2,0,0,0,61,38.2c1.8,3.91,5.52,14.4,3.57,20.5q-2.7-3.2-5.72-6.51A300.74,300.74,0,0,0,37.19,30.74a2,2,0,1,0-2.64,3c.14.11,4.68,4.12,11,10.36a18,18,0,0,1-10.27.33,2,2,0,0,0-1.3,3.78,19.09,19.09,0,0,0,5.81.82,22.35,22.35,0,0,0,8.84-1.83A244.13,244.13,0,0,1,67.94,69.35C67.16,70.05,66.35,70.73,65.5,71.37Z" fill="#FFFFFF"></path></g></svg>