<svg xmlns:xlink="http://www.w3.org/1999/xlink" xmlns="http://www.w3.org/2000/svg" class="flickity-button-icon" viewBox="0 0 100 100" width="100"  height="100" ><path d="M95,48H9.83L41,16.86A2,2,0,0,0,38.14,14L3.59,48.58a1.79,1.79,0,0,0-.25.31,1.19,1.19,0,0,0-.09.15l-.1.2-.06.2a.84.84,0,0,0,0,.17,2,2,0,0,0,0,.78.84.84,0,0,0,0,.17l.06.2.1.2a1.19,1.19,0,0,0,.09.15,1.79,1.79,0,0,0,.25.31L38.14,86A2,2,0,0,0,41,86a2,2,0,0,0,0-2.83L9.83,52H95a2,2,0,0,0,0-4Z" class="arrow" transform="translate(100, 100) rotate(180) " fill="#333333"></path></svg>